<svg width="12" height="7" viewBox="0 0 12 7" fill="none" xmlns="http://www.w3.org/2000/svg">
<path d="M11.2883 0.310022C11.1958 0.217319 11.0859 0.143771 10.9649 0.0935897C10.8439 0.0434083 10.7142 0.0175781 10.5833 0.0175781C10.4523 0.0175781 10.3226 0.0434083 10.2016 0.0935897C10.0807 0.143771 9.97078 0.217319 9.87827 0.310022L5.99827 4.19002L2.11827 0.310022C1.93129 0.123044 1.6777 0.0180011 1.41327 0.0180011C1.14884 0.0180011 0.895247 0.123044 0.708269 0.310022C0.521291 0.496999 0.41625 0.750595 0.41625 1.01502C0.41625 1.27945 0.521291 1.53304 0.708269 1.72002L5.29827 6.31002C5.39078 6.40272 5.50067 6.47627 5.62165 6.52645C5.74262 6.57663 5.8723 6.60246 6.00327 6.60246C6.13424 6.60246 6.26392 6.57663 6.38489 6.52645C6.50587 6.47627 6.61576 6.40272 6.70827 6.31002L11.2983 1.72002C11.6783 1.34002 11.6783 0.700022 11.2883 0.310022Z" fill="black"/>
</svg>
