<svg width="56" height="34" viewBox="0 0 56 34" fill="none" xmlns="http://www.w3.org/2000/svg">
<g opacity="0.3">
<path d="M55.9964 16.9636C55.9727 16.357 55.7229 15.6557 55.3069 15.2136L41.7317 0.789863C40.8121 -0.0369003 39.0478 -0.377786 38.0199 0.577999C37.0073 1.51957 37.0375 3.34478 38.0459 4.28987L47.5907 14.4183L2.54528 14.4183C1.13973 14.4183 -0.000152588 15.5581 -0.000152588 16.9637C-0.000152588 18.3693 1.13968 19.5091 2.54528 19.5091L47.5907 19.5091L38.0459 29.6375C37.1771 30.5075 37.0167 32.3978 38.0199 33.3494C39.0224 34.3017 40.8494 33.9974 41.7317 33.137L55.3069 18.7132C55.7715 18.2197 55.9975 17.6403 55.9964 16.9632V16.9636Z" fill="black"/>
</g>
</svg>
