<svg width="56" height="34" viewBox="0 0 56 34" fill="none" xmlns="http://www.w3.org/2000/svg">
<g opacity="0.3">
<path d="M-0.000388897 16.9729C0.0232851 17.5795 0.27303 18.2808 0.689076 18.7229L14.2642 33.1466C15.1839 33.9734 16.9481 34.3143 17.9761 33.3585C18.9887 32.4169 18.9585 30.5917 17.95 29.6466L8.40524 19.5182L53.4507 19.5182C54.8562 19.5182 55.9961 18.3784 55.9961 16.9728C55.9961 15.5672 54.8563 14.4274 53.4507 14.4274L8.40524 14.4274L17.95 4.29898C18.8188 3.429 18.9792 1.53871 17.9761 0.587107C16.9735 -0.365131 15.1466 -0.0609249 14.2642 0.799562L0.689076 15.2233C0.224503 15.7168 -0.00157146 16.2962 -0.000388897 16.9733L-0.000388897 16.9729Z" fill="black"/>
</g>
</svg>
