<svg width="14" height="14" viewBox="0 0 14 14" fill="none" xmlns="http://www.w3.org/2000/svg">
<path opacity="0.5" d="M13.8307 13.0103L10.4012 9.58254C11.2603 8.53406 11.7314 7.222 11.7314 5.86697C11.7314 2.63123 9.09951 0 5.86643 0C5.07601 0 4.30853 0.154694 3.58543 0.461212C2.88666 0.757703 2.2595 1.18026 1.72112 1.71884C1.18274 2.25742 0.758891 2.88479 0.462498 3.58378C0.156077 4.30712 0 5.07488 0 5.86553C0 9.10127 2.63192 11.7325 5.86501 11.7325C7.22101 11.7325 8.53124 11.2613 9.57935 10.4018L13.0059 13.8295C13.1162 13.9398 13.2622 14 13.4169 14C13.5729 14 13.719 13.9398 13.8278 13.8295C14.0569 13.6047 14.0569 13.2365 13.8307 13.0102L13.8307 13.0103ZM10.5703 5.86566C10.5703 8.46111 8.45976 10.571 5.86656 10.571C3.27197 10.571 1.16277 8.45973 1.16277 5.86566C1.16277 3.2716 3.27336 1.1603 5.86656 1.1603C8.45976 1.1603 10.5703 3.2716 10.5703 5.86566Z" fill="black"/>
</svg>
