<svg width="15" height="19" viewBox="0 0 15 19" fill="none" xmlns="http://www.w3.org/2000/svg">
<path d="M7.61568 0.8877C11.3402 0.8877 14.3691 3.89949 14.3691 7.60162V11.0216H14.3686V13.2405C14.3685 13.5157 14.2772 13.7831 14.1086 14.0014C13.94 14.2195 13.7036 14.3763 13.4363 14.4475L11.3547 15.0018C11.219 15.0381 11.0744 15.0192 10.9528 14.9494C10.8311 14.8794 10.7423 14.7644 10.706 14.6295V8.39755C10.7353 8.289 10.7988 8.1927 10.8872 8.12262C10.9754 8.0524 11.0841 8.01235 11.197 8.00801C11.2501 8.00577 11.3034 8.0117 11.3547 8.02526L13.4363 8.57973C13.4522 8.58434 13.4681 8.58935 13.4837 8.59475V7.60159C13.4837 4.3743 10.8623 1.76553 7.61575 1.76553C4.36916 1.76553 1.7471 4.3743 1.7471 7.60159V8.59475C1.76313 8.58935 1.77917 8.58434 1.79521 8.57973L3.87678 8.02526C3.92807 8.0117 3.98135 8.00577 4.03449 8.00801C4.1474 8.01235 4.25607 8.0524 4.34434 8.12262C4.43273 8.1927 4.49621 8.289 4.5255 8.39755V14.6295C4.48919 14.7644 4.40039 14.8794 4.27874 14.9494C4.15708 15.0192 4.01249 15.0381 3.87677 15.0018L1.79519 14.4475C1.73688 14.4314 1.67963 14.4111 1.62423 14.3869C2.0548 15.7872 3.25431 16.8469 4.73542 17.0895C4.85695 16.858 5.0947 16.6563 5.4145 16.5131C5.73429 16.3699 6.11967 16.2926 6.51539 16.2923C7.01211 16.2923 7.48841 16.4135 7.83958 16.6293C8.19079 16.845 8.38811 17.1375 8.38811 17.4426C8.38811 17.7479 8.19078 18.0405 7.83958 18.2561C7.48837 18.4719 7.01208 18.5931 6.51539 18.5931C6.08482 18.5931 5.66736 18.5018 5.33352 18.3348C4.99955 18.1677 4.76948 17.9352 4.68216 17.6761C3.1182 17.4342 1.81653 16.3932 1.21721 14.9869C0.988471 14.4498 0.86244 13.8602 0.86244 13.2411H0.86297V13.2405V11.0216H0.861911V7.60161C0.861911 3.89965 3.89161 0.887695 7.61605 0.887695L7.61568 0.8877Z" fill="url(#paint0_linear_1207_1231)"/>
<defs>
<linearGradient id="paint0_linear_1207_1231" x1="7.61553" y1="0.887695" x2="7.61553" y2="18.5931" gradientUnits="userSpaceOnUse">
<stop stop-color="#CB3A06"/>
<stop offset="1" stop-color="#DD810C"/>
</linearGradient>
</defs>
</svg>
